<svg width="32" height="33" viewBox="0 0 32 33" fill="none" xmlns="http://www.w3.org/2000/svg">
<g clip-path="url(#clip0_20133_166461)">
<path d="M21.3333 27.427H26.6667C28.0812 27.427 29.4377 26.8651 30.4379 25.8649C31.4381 24.8647 32 23.5082 32 22.0937V16.7603C32 16.0531 31.719 15.3748 31.219 14.8747C30.7189 14.3746 30.0406 14.0937 29.3333 14.0937H21.4533C21.7697 12.2316 22.734 10.5413 24.176 9.3214C25.6179 8.10149 27.4446 7.43051 29.3333 7.427C29.687 7.427 30.0261 7.28653 30.2761 7.03648C30.5262 6.78643 30.6667 6.44729 30.6667 6.09367C30.6667 5.74005 30.5262 5.40091 30.2761 5.15086C30.0261 4.90081 29.687 4.76033 29.3333 4.76033C26.5053 4.76351 23.7941 5.88834 21.7944 7.88804C19.7947 9.88774 18.6698 12.599 18.6667 15.427V24.7603C18.6667 25.4676 18.9476 26.1459 19.4477 26.646C19.9478 27.1461 20.6261 27.427 21.3333 27.427Z" fill="#9DA6CB"/>
<path d="M2.66666 27.427H7.99999C9.41448 27.427 10.771 26.8651 11.7712 25.8649C12.7714 24.8647 13.3333 23.5082 13.3333 22.0937V16.7603C13.3333 16.0531 13.0524 15.3748 12.5523 14.8747C12.0522 14.3746 11.3739 14.0937 10.6667 14.0937H2.78666C3.10302 12.2316 4.06736 10.5413 5.50929 9.3214C6.95122 8.10149 8.77793 7.43051 10.6667 7.427C11.0203 7.427 11.3594 7.28653 11.6095 7.03648C11.8595 6.78643 12 6.44729 12 6.09367C12 5.74005 11.8595 5.40091 11.6095 5.15086C11.3594 4.90081 11.0203 4.76033 10.6667 4.76033C7.83866 4.76351 5.1274 5.88834 3.1277 7.88804C1.128 9.88774 0.00317097 12.599 -5.72205e-06 15.427V24.7603C-5.72205e-06 25.4676 0.280947 26.1459 0.781044 26.646C1.28114 27.1461 1.95942 27.427 2.66666 27.427Z" fill="#9DA6CB"/>
</g>
<defs>
<clipPath id="clip0_20133_166461">
<rect width="32" height="32" fill="white" transform="matrix(-1 0 0 -1 32 32.7603)"/>
</clipPath>
</defs>
</svg>
