<svg width="21" height="20" viewBox="0 0 21 20" fill="none" xmlns="http://www.w3.org/2000/svg">
<g clip-path="url(#clip0_20202_131)">
<path d="M16.5 4.16668H14.7691C14.4891 2.58084 13.3083 1.27168 11.7075 0.86001C11.2666 0.745843 10.8083 1.01418 10.6925 1.45918C10.5775 1.90501 10.8466 2.35918 11.2925 2.47334C12.3958 2.75751 13.1666 3.75334 13.1666 4.89501V14.1667H3.99996C3.08079 14.1667 2.33329 13.4192 2.33329 12.5V9.16668H4.41663C4.87746 9.16668 5.24996 8.79334 5.24996 8.33334C5.24996 7.87334 4.87746 7.50001 4.41663 7.50001H2.33329C1.41413 7.50001 0.666626 8.24751 0.666626 9.16668V12.5C0.666626 14.0667 1.75329 15.3842 3.21246 15.7392C3.18246 15.9067 3.16663 16.0775 3.16663 16.25C3.16663 17.8583 4.47496 19.1667 6.08329 19.1667C7.69163 19.1667 8.99996 17.8583 8.99996 16.25C8.99996 16.1092 8.98913 15.9708 8.96913 15.8333H12.3641C12.3441 15.9708 12.3333 16.1092 12.3333 16.25C12.3333 17.8583 13.6416 19.1667 15.25 19.1667C16.8583 19.1667 18.1666 17.8583 18.1666 16.25C18.1666 16.0775 18.1508 15.9067 18.1208 15.7392C19.58 15.3842 20.6666 14.0667 20.6666 12.5V8.33334C20.6666 6.03584 18.7975 4.16668 16.5 4.16668ZM19 8.33334V9.16668H14.8333V5.83334H16.5C17.8783 5.83334 19 6.95501 19 8.33334ZM7.33329 16.25C7.33329 16.9392 6.77246 17.5 6.08329 17.5C5.39413 17.5 4.83329 16.9392 4.83329 16.25C4.83329 16.0925 4.86413 15.9533 4.90913 15.8333H7.25829C7.30329 15.9533 7.33413 16.0925 7.33413 16.25H7.33329ZM15.25 17.5C14.5608 17.5 14 16.9392 14 16.25C14 16.0925 14.0308 15.9533 14.0758 15.8333H16.425C16.47 15.9533 16.5008 16.0925 16.5008 16.25C16.5008 16.9392 15.9391 17.5 15.25 17.5ZM17.3333 14.1667H14.8333V10.8333H19V12.5C19 13.4192 18.2525 14.1667 17.3333 14.1667ZM0.666626 1.66668C0.666626 1.20668 1.03913 0.833344 1.49996 0.833344H8.29496C8.75579 0.833344 9.12829 1.20668 9.12829 1.66668C9.12829 2.12668 8.75579 2.50001 8.29496 2.50001H1.49996C1.03913 2.50001 0.666626 2.12668 0.666626 1.66668ZM0.666626 5.00001C0.666626 4.54001 1.03913 4.16668 1.49996 4.16668H6.62829C7.08913 4.16668 7.46163 4.54001 7.46163 5.00001C7.46163 5.46001 7.08913 5.83334 6.62829 5.83334H1.49996C1.03913 5.83334 0.666626 5.46001 0.666626 5.00001Z" fill="#151A2D"/>
</g>
<defs>
<clipPath id="clip0_20202_131">
<rect width="20" height="20" fill="white" transform="translate(0.666626)"/>
</clipPath>
</defs>
</svg>
