<svg width="24" height="24" viewBox="0 0 24 24" fill="none" xmlns="http://www.w3.org/2000/svg">
<path d="M13.2924 12.0003L21.7744 1.63334C22.1244 1.20634 22.0604 0.576336 21.6324 0.226336C21.2044 -0.121664 20.5754 -0.0606642 20.2254 0.368336L12.0004 10.4213L3.77443 0.367336C3.42343 -0.0616642 2.79443 -0.122664 2.36743 0.225336C1.93943 0.576336 1.87643 1.20534 2.22543 1.63234L10.7084 12.0003L2.22643 22.3673C1.87643 22.7943 1.94043 23.4243 2.36843 23.7743C2.79343 24.1223 3.42443 24.0623 3.77543 23.6323L12.0004 13.5793L20.2264 23.6323C20.5774 24.0623 21.2084 24.1213 21.6334 23.7743C22.0614 23.4233 22.1244 22.7943 21.7754 22.3673L13.2924 12.0003Z" fill="white"/>
</svg>
