<svg width="18" height="18" viewBox="0 0 18 18" fill="none" xmlns="http://www.w3.org/2000/svg">
<g clip-path="url(#clip0_20202_192)">
<path d="M17.877 3.52871C17.3048 1.19396 14.0895 -0.0405432 12.12 1.21571C11.2682 0.435693 10.155 0.00305176 9.00002 0.00305176C7.845 0.00305176 6.73188 0.435693 5.88002 1.21571C1.05677 -1.24354 -2.69023 5.79746 2.49452 8.03471C2.63478 8.07516 2.75889 8.15842 2.84952 8.27285C2.94015 8.38728 2.99277 8.52716 3.00002 8.67296V14.625C3.00002 15.5201 3.3556 16.3785 3.98854 17.0114C4.62147 17.6444 5.47992 18 6.37502 18H11.625C12.0682 18 12.5071 17.9127 12.9166 17.743C13.3261 17.5734 13.6981 17.3248 14.0115 17.0114C14.3249 16.698 14.5735 16.326 14.7431 15.9165C14.9127 15.507 15 15.0682 15 14.625V8.67296C15.0073 8.52716 15.0599 8.38728 15.1505 8.27285C15.2412 8.15842 15.3653 8.07516 15.5055 8.03471C16.3935 7.71742 17.1301 7.07826 17.5692 6.24378C18.0084 5.4093 18.1183 4.44032 17.877 3.52871ZM13.5 14.625C13.5 15.1222 13.3025 15.5992 12.9508 15.9508C12.5992 16.3024 12.1223 16.5 11.625 16.5H6.37502C6.09749 16.4941 5.82444 16.4287 5.57431 16.3083C5.32419 16.1879 5.1028 16.0152 4.92508 15.802C4.74737 15.5887 4.61746 15.3398 4.54414 15.0721C4.47081 14.8044 4.45577 14.524 4.50002 14.25H13.5V14.625ZM15 6.62096C14.5671 6.76369 14.1897 7.03829 13.9208 7.40627C13.6518 7.77425 13.5046 8.21717 13.5 8.67296V12.75H4.50002V8.67296C4.4954 8.21717 4.34828 7.77425 4.07929 7.40627C3.8103 7.03829 3.43291 6.76369 3.00002 6.62096C2.46481 6.42838 2.02139 6.04191 1.75751 5.53803C1.49362 5.03414 1.4285 4.44956 1.57502 3.89996C2.01452 2.32496 4.37177 1.66571 5.46227 2.77496C5.5405 2.85366 5.63513 2.91414 5.73941 2.95209C5.84369 2.99003 5.95506 3.00451 6.06558 2.99448C6.1761 2.98445 6.28304 2.95017 6.37879 2.89408C6.47454 2.83798 6.55674 2.76146 6.61952 2.66996C7.55477 1.10996 10.4408 1.10996 11.376 2.66996C11.4389 2.76135 11.5211 2.83777 11.6169 2.89378C11.7126 2.9498 11.8195 2.98403 11.93 2.99406C12.0405 3.00408 12.1518 2.98965 12.2561 2.95178C12.3603 2.91391 12.455 2.85354 12.5333 2.77496C12.8289 2.52319 13.1818 2.34772 13.5609 2.26391C13.9401 2.1801 14.3341 2.1905 14.7083 2.29421C15.185 2.39989 15.6146 2.65714 15.9329 3.02744C16.2512 3.39775 16.441 3.86119 16.4738 4.34837C16.5067 4.83555 16.3808 5.32027 16.1152 5.72995C15.8495 6.13963 15.4582 6.45223 15 6.62096Z" fill="#151A2D"/>
</g>
<defs>
<clipPath id="clip0_20202_192">
<rect width="18" height="18" fill="white"/>
</clipPath>
</defs>
</svg>
