<svg width="18" height="18" viewBox="0 0 18 18" fill="none" xmlns="http://www.w3.org/2000/svg">
<g clip-path="url(#clip0_20202_283)">
<path d="M15.7725 2.23506C13.3733 -0.164194 10.167 -0.719194 8.475 0.973556C6.1515 3.29706 4.818 6.37506 4.5105 10.1221C4.45575 10.7851 4.61175 11.4368 4.94625 11.9926L2.109 14.8306C1.917 14.4848 1.548 14.2508 1.125 14.2508C0.504 14.2508 0 14.7548 0 15.3758C0 15.9968 0.504 16.5008 1.125 16.5008C1.29825 16.5008 1.4625 16.4618 1.6095 16.3913C1.53975 16.5383 1.5 16.7026 1.5 16.8758C1.5 17.4968 2.004 18.0008 2.625 18.0008C3.246 18.0008 3.75 17.4968 3.75 16.8758C3.75 16.4521 3.516 16.0831 3.1695 15.8918L6.00675 13.0538C6.48975 13.3448 7.04625 13.5008 7.6185 13.5008C7.70475 13.5008 7.791 13.4971 7.87725 13.4903C11.6355 13.1821 14.7165 11.8501 17.0333 9.53331C18.7253 7.84131 18.1717 4.63581 15.7717 2.23581L15.7725 2.23506ZM14.712 3.29556C16.4565 5.04081 17.0348 7.4108 15.9735 8.47205C14.913 9.5333 12.5422 8.95506 10.797 7.20981C9.8985 6.31131 9.28875 5.24631 9.0795 4.21131C8.892 3.28806 9.05475 2.51406 9.5355 2.03331C9.89625 1.67256 10.4093 1.50156 10.9973 1.50156C12.1373 1.50156 13.5607 2.14506 14.712 3.29556ZM7.75575 11.9941C7.27575 12.0398 6.80925 11.8628 6.47325 11.5268C6.13725 11.1908 5.967 10.7236 6.006 10.2451C6.1815 8.10456 6.7215 6.21381 7.617 4.58931C7.887 5.83356 8.60775 7.14156 9.7365 8.27031C10.8653 9.39906 12.1703 10.1183 13.4138 10.3891C11.7915 11.2801 9.89925 11.8186 7.75575 11.9941ZM12.21 5.79756C11.6663 5.25381 11.469 4.56981 11.7697 4.26906C12.0705 3.96831 12.7545 4.16556 13.2983 4.70931C13.842 5.25306 14.0393 5.93706 13.7385 6.23781C13.4378 6.53856 12.7538 6.34131 12.21 5.79756Z" fill="#151A2D"/>
</g>
<defs>
<clipPath id="clip0_20202_283">
<rect width="18" height="18" fill="white"/>
</clipPath>
</defs>
</svg>
