<svg width="19" height="19" viewBox="0 0 19 19" fill="none" xmlns="http://www.w3.org/2000/svg">
<g clip-path="url(#clip0_20169_37710)">
<path d="M13.625 1.93775C12.7804 1.95089 11.9543 2.18664 11.23 2.6212C10.5058 3.05577 9.90899 3.67375 9.49997 4.41275C9.09095 3.67375 8.49417 3.05577 7.7699 2.6212C7.04562 2.18664 6.21951 1.95089 5.37497 1.93775C4.02867 1.99624 2.76025 2.58519 1.84681 3.57592C0.933363 4.56666 0.449156 5.87864 0.499969 7.22525C0.499969 10.6355 4.08947 14.36 7.09997 16.8853C7.77213 17.4501 8.62198 17.7598 9.49997 17.7598C10.378 17.7598 11.2278 17.4501 11.9 16.8853C14.9105 14.36 18.5 10.6355 18.5 7.22525C18.5508 5.87864 18.0666 4.56666 17.1531 3.57592C16.2397 2.58519 14.9713 1.99624 13.625 1.93775ZM10.9362 15.7377C10.5342 16.0763 10.0255 16.2619 9.49997 16.2619C8.9744 16.2619 8.46573 16.0763 8.06372 15.7377C4.21022 12.5045 1.99997 9.4025 1.99997 7.22525C1.9487 6.27629 2.27474 5.34555 2.90699 4.63602C3.53924 3.9265 4.42639 3.49576 5.37497 3.43775C6.32354 3.49576 7.2107 3.9265 7.84295 4.63602C8.47519 5.34555 8.80124 6.27629 8.74997 7.22525C8.74997 7.42416 8.82899 7.61493 8.96964 7.75558C9.11029 7.89623 9.30106 7.97525 9.49997 7.97525C9.69888 7.97525 9.88965 7.89623 10.0303 7.75558C10.171 7.61493 10.25 7.42416 10.25 7.22525C10.1987 6.27629 10.5247 5.34555 11.157 4.63602C11.7892 3.9265 12.6764 3.49576 13.625 3.43775C14.5735 3.49576 15.4607 3.9265 16.0929 4.63602C16.7252 5.34555 17.0512 6.27629 17 7.22525C17 9.4025 14.7897 12.5045 10.9362 15.7347V15.7377Z" fill="#FF554A"/>
</g>
<defs>
<clipPath id="clip0_20169_37710">
<rect width="18" height="18" fill="white" transform="translate(0.5 0.5)"/>
</clipPath>
</defs>
</svg>
