<svg width="21" height="20" viewBox="0 0 21 20" fill="none" xmlns="http://www.w3.org/2000/svg">
<g clip-path="url(#clip0_20202_202)">
<path d="M15.8175 1.78332L10.5967 0.0424871C10.4257 -0.0144472 10.2409 -0.0144472 10.07 0.0424871L4.84917 1.78332C4.01909 2.05905 3.29701 2.58937 2.78554 3.29891C2.27406 4.00846 1.9992 4.86114 2 5.73582V9.99999C2 16.3025 9.66667 19.7833 9.995 19.9283C10.1015 19.9756 10.2168 20.0001 10.3333 20.0001C10.4499 20.0001 10.5652 19.9756 10.6717 19.9283C11 19.7833 18.6667 16.3025 18.6667 9.99999V5.73582C18.6675 4.86114 18.3926 4.00846 17.8811 3.29891C17.3697 2.58937 16.6476 2.05905 15.8175 1.78332ZM17 9.99999C17 14.5458 11.7342 17.5275 10.3333 18.2408C8.93083 17.53 3.66667 14.5575 3.66667 9.99999V5.73582C3.66672 5.21105 3.8319 4.6996 4.13881 4.27394C4.44571 3.84828 4.87879 3.52998 5.37667 3.36415L10.3333 1.71165L15.29 3.36415C15.7879 3.52998 16.221 3.84828 16.5279 4.27394C16.8348 4.6996 17 5.21105 17 5.73582V9.99999Z" fill="#151A2D"/>
<path d="M13.0833 6.91667L9.59328 10.4167L7.72328 8.46667C7.64824 8.38462 7.55753 8.31841 7.4565 8.27196C7.35547 8.2255 7.24617 8.19974 7.13503 8.19618C7.02389 8.19262 6.91316 8.21134 6.80937 8.25123C6.70558 8.29113 6.61082 8.35139 6.53068 8.42848C6.45053 8.50556 6.38663 8.5979 6.34273 8.70007C6.29882 8.80223 6.27581 8.91215 6.27504 9.02334C6.27428 9.13453 6.29577 9.24476 6.33826 9.34751C6.38075 9.45027 6.44338 9.54349 6.52245 9.62167L8.44412 11.6217C8.58743 11.7765 8.76065 11.9006 8.9533 11.9865C9.14595 12.0725 9.35402 12.1184 9.56495 12.1217H9.59245C9.79916 12.1224 10.004 12.082 10.1949 12.0029C10.3859 11.9237 10.5593 11.8075 10.7049 11.6608L14.2649 8.10083C14.3427 8.02325 14.4044 7.9311 14.4466 7.82966C14.4887 7.72822 14.5104 7.61948 14.5106 7.50964C14.5107 7.39979 14.4892 7.291 14.4472 7.18947C14.4053 7.08795 14.3438 6.99567 14.2662 6.91792C14.1886 6.84016 14.0965 6.77845 13.995 6.73631C13.8936 6.69417 13.7848 6.67242 13.675 6.6723C13.5652 6.67219 13.4564 6.69371 13.3548 6.73564C13.2533 6.77756 13.161 6.83908 13.0833 6.91667Z" fill="#151A2D"/>
</g>
<defs>
<clipPath id="clip0_20202_202">
<rect width="20" height="20" fill="white" transform="translate(0.333313)"/>
</clipPath>
</defs>
</svg>
