<svg width="20" height="20" viewBox="0 0 20 20" fill="none" xmlns="http://www.w3.org/2000/svg">
<g clip-path="url(#clip0_20202_63)">
<path d="M5.83346 20C6.75394 20 7.50013 19.2538 7.50013 18.3333C7.50013 17.4128 6.75394 16.6667 5.83346 16.6667C4.91299 16.6667 4.16679 17.4128 4.16679 18.3333C4.16679 19.2538 4.91299 20 5.83346 20Z" fill="#151A2D"/>
<path d="M14.1668 20C15.0873 20 15.8335 19.2538 15.8335 18.3333C15.8335 17.4128 15.0873 16.6667 14.1668 16.6667C13.2463 16.6667 12.5001 17.4128 12.5001 18.3333C12.5001 19.2538 13.2463 20 14.1668 20Z" fill="#151A2D"/>
<path d="M19.7375 1.11313C19.5813 0.956903 19.3693 0.869141 19.1484 0.869141C18.9274 0.869141 18.7155 0.956903 18.5592 1.11313L14.26 5.41646L12.9675 4.0673C12.8917 3.98839 12.8011 3.9252 12.7008 3.88133C12.6005 3.83745 12.4926 3.81376 12.3832 3.81159C12.2738 3.80942 12.165 3.82883 12.0631 3.8687C11.9612 3.90857 11.8681 3.96812 11.7892 4.04396C11.7103 4.1198 11.6471 4.21044 11.6032 4.3107C11.5594 4.41096 11.5357 4.51888 11.5335 4.6283C11.5291 4.84928 11.6127 5.06295 11.7659 5.2223L13.1109 6.62146C13.2542 6.77626 13.4274 6.90038 13.62 6.98632C13.8127 7.07226 14.0208 7.11823 14.2317 7.12146H14.2592C14.4659 7.12215 14.6707 7.08176 14.8617 7.00265C15.0527 6.92354 15.226 6.80729 15.3717 6.66063L19.7375 2.29146C19.8938 2.13519 19.9815 1.92327 19.9815 1.7023C19.9815 1.48133 19.8938 1.2694 19.7375 1.11313Z" fill="#151A2D"/>
<path d="M18.2501 7.51333C18.1424 7.49387 18.0319 7.49582 17.9249 7.51909C17.8179 7.54235 17.7165 7.58647 17.6266 7.64893C17.5367 7.71138 17.4599 7.79095 17.4008 7.88307C17.3416 7.97519 17.3012 8.07808 17.2818 8.18583L17.1751 8.77667C17.0712 9.3536 16.7678 9.87566 16.318 10.2516C15.8681 10.6275 15.3005 10.8334 14.7143 10.8333H4.51512L3.73179 4.16667H9.16679C9.3878 4.16667 9.59976 4.07887 9.75604 3.92259C9.91232 3.76631 10.0001 3.55435 10.0001 3.33333C10.0001 3.11232 9.91232 2.90036 9.75604 2.74408C9.59976 2.5878 9.3878 2.5 9.16679 2.5H3.53512L3.50012 2.20667C3.42831 1.59883 3.136 1.03846 2.67861 0.631753C2.22122 0.225045 1.63052 0.000260697 1.01846 0L0.833455 0C0.612442 0 0.40048 0.0877974 0.2442 0.244078C0.0879194 0.400358 0.00012207 0.61232 0.00012207 0.833333C0.00012207 1.05435 0.0879194 1.26631 0.2442 1.42259C0.40048 1.57887 0.612442 1.66667 0.833455 1.66667H1.01846C1.22257 1.66669 1.41957 1.74163 1.5721 1.87726C1.72463 2.0129 1.82207 2.19979 1.84596 2.4025L2.99262 12.1525C3.11167 13.1665 3.59885 14.1015 4.36171 14.78C5.12457 15.4585 6.11 15.8334 7.13096 15.8333H15.8335C16.0545 15.8333 16.2664 15.7455 16.4227 15.5893C16.579 15.433 16.6668 15.221 16.6668 15C16.6668 14.779 16.579 14.567 16.4227 14.4107C16.2664 14.2545 16.0545 14.1667 15.8335 14.1667H7.13096C6.61389 14.1668 6.10951 14.0065 5.6873 13.708C5.26508 13.4096 4.94581 12.9875 4.77346 12.5H14.7143C15.6912 12.5001 16.6371 12.1569 17.3866 11.5304C18.1362 10.9039 18.6418 10.0339 18.8151 9.0725L18.9218 8.48083C18.9609 8.26348 18.9121 8.0395 18.7862 7.8581C18.6602 7.67669 18.4674 7.55269 18.2501 7.51333Z" fill="#151A2D"/>
</g>
<defs>
<clipPath id="clip0_20202_63">
<rect width="20" height="20" fill="white"/>
</clipPath>
</defs>
</svg>
