<svg width="18" height="18" viewBox="0 0 18 18" fill="none" xmlns="http://www.w3.org/2000/svg">
<g clip-path="url(#clip0_20202_174)">
<path d="M9.00005 12.0002C9.34929 12.0009 9.69386 11.9203 10.0065 11.7647L11.5065 11.0147C12.2711 10.6351 12.7534 9.85383 12.7501 9.00024V6.77499C12.7527 5.92213 12.2705 5.14187 11.5065 4.76275L10.0065 4.01276C9.37278 3.69776 8.62806 3.69776 7.9943 4.01276L6.49429 4.76275C5.73006 5.14166 5.24754 5.92199 5.25004 6.77499V9.00024C5.2473 9.8533 5.72946 10.6338 6.49355 11.0132L7.99356 11.7632C8.3061 11.9193 8.6507 12.0004 9.00005 12.0002ZM6.75005 9.00024V6.77499C6.75125 6.69849 6.76415 6.62258 6.7883 6.54999L8.42331 7.36748C8.78641 7.54895 9.21373 7.54895 9.57682 7.36748L11.2118 6.54999C11.236 6.62258 11.2489 6.69849 11.2501 6.77499V9.00024C11.2513 9.28479 11.0904 9.54523 10.8353 9.67147L9.33533 10.4215C9.12383 10.5261 8.8756 10.5261 8.6641 10.4215L7.16409 9.67147C6.90931 9.54502 6.74871 9.28465 6.75005 9.00024ZM14.25 16.5002H12.2183L14.8335 14.0837C18.0554 10.8619 18.0555 5.63835 14.8337 2.41646C11.6119 -0.805438 6.38836 -0.805474 3.16647 2.41628C-0.0554252 5.63803 -0.0554957 10.8617 3.16629 14.0835C3.17336 14.0906 5.78181 16.5002 5.78181 16.5002H3.75006C3.33585 16.5002 3.00007 16.836 3.00007 17.2502C3.00007 17.6644 3.33585 18.0002 3.75006 18.0002H14.2501C14.6643 18.0002 15.0001 17.6644 15.0001 17.2502C15.0001 16.836 14.6642 16.5002 14.25 16.5002ZM4.22706 3.47723C6.85731 0.835163 11.1314 0.825601 13.7734 3.45585C16.4155 6.0861 16.425 10.3602 13.7948 13.0022L10.8061 15.763C9.78597 16.7245 8.19163 16.7189 7.17832 15.7502L4.22706 13.0232C1.59509 10.3855 1.59513 6.115 4.22706 3.47723Z" fill="#151A2D"/>
</g>
<defs>
<clipPath id="clip0_20202_174">
<rect width="18" height="18" fill="white"/>
</clipPath>
</defs>
</svg>
