<svg width="18" height="18" viewBox="0 0 18 18" fill="none" xmlns="http://www.w3.org/2000/svg">
<g clip-path="url(#clip0_20202_180)">
<path d="M18 3.75V14.25C17.9988 15.2442 17.6033 16.1973 16.9003 16.9003C16.1973 17.6033 15.2442 17.9988 14.25 18H3.75C2.7558 17.9988 1.80267 17.6033 1.09966 16.9003C0.396661 16.1973 0.00119089 15.2442 0 14.25L0 3.75C0.00119089 2.7558 0.396661 1.80267 1.09966 1.09966C1.80267 0.396661 2.7558 0.00119089 3.75 0L14.25 0C15.2442 0.00119089 16.1973 0.396661 16.9003 1.09966C17.6033 1.80267 17.9988 2.7558 18 3.75ZM1.5 14.25C1.5 14.8467 1.73705 15.419 2.15901 15.841C2.58097 16.2629 3.15326 16.5 3.75 16.5H14.25C14.8467 16.5 15.419 16.2629 15.841 15.841C16.2629 15.419 16.5 14.8467 16.5 14.25V3.75C16.5 3.15326 16.2629 2.58097 15.841 2.15901C15.419 1.73705 14.8467 1.5 14.25 1.5H3.75C3.15326 1.5 2.58097 1.73705 2.15901 2.15901C1.73705 2.58097 1.5 3.15326 1.5 3.75V14.25ZM12 9C12.0006 9.54901 11.7999 10.0792 11.436 10.4903C11.2178 10.7355 11.0055 10.968 10.8532 11.1202L8.73525 13.275C8.66743 13.3499 8.58518 13.4103 8.49343 13.4527C8.40168 13.495 8.30232 13.5183 8.20133 13.5213C8.10033 13.5243 7.99977 13.5068 7.90569 13.4699C7.81161 13.4331 7.72595 13.3776 7.65385 13.3068C7.58175 13.236 7.5247 13.1514 7.48611 13.058C7.44753 12.9646 7.42821 12.8644 7.42933 12.7634C7.43044 12.6623 7.45195 12.5626 7.49258 12.47C7.53321 12.3775 7.59211 12.2942 7.66575 12.225L9.7875 10.065C9.92775 9.924 10.1182 9.714 10.3125 9.49575C10.4334 9.35874 10.5 9.18232 10.5 8.99963C10.5 8.81693 10.4334 8.64051 10.3125 8.5035C10.119 8.286 9.9285 8.076 9.79275 7.9395L7.66575 5.775C7.59211 5.70582 7.53321 5.62247 7.49258 5.52995C7.45195 5.43744 7.43044 5.33767 7.42933 5.23663C7.42821 5.1356 7.44753 5.03538 7.48611 4.942C7.5247 4.84861 7.58175 4.76399 7.65385 4.6932C7.72595 4.62241 7.81161 4.56693 7.90569 4.53007C7.99977 4.49321 8.10033 4.47574 8.20133 4.47871C8.30232 4.48168 8.40168 4.50503 8.49343 4.54735C8.58518 4.58967 8.66743 4.6501 8.73525 4.725L10.857 6.88425C11.007 7.03425 11.217 7.2645 11.4337 7.509C11.7988 7.91982 12.0003 8.4504 12 9Z" fill="#151A2D"/>
</g>
<defs>
<clipPath id="clip0_20202_180">
<rect width="18" height="18" fill="white"/>
</clipPath>
</defs>
</svg>
