<svg width="19" height="19" viewBox="0 0 19 19" fill="none" xmlns="http://www.w3.org/2000/svg">
<g clip-path="url(#clip0_20170_37770)">
<path d="M13.625 1.93775C12.7804 1.95089 11.9543 2.18664 11.23 2.6212C10.5058 3.05577 9.90899 3.67375 9.49997 4.41275C9.09095 3.67375 8.49417 3.05577 7.7699 2.6212C7.04562 2.18664 6.21951 1.95089 5.37497 1.93775C4.02867 1.99624 2.76025 2.58519 1.84681 3.57592C0.933363 4.56666 0.449156 5.87864 0.499969 7.22525C0.499969 10.6355 4.08947 14.36 7.09997 16.8853C7.77213 17.4501 8.62198 17.7598 9.49997 17.7598C10.378 17.7598 11.2278 17.4501 11.9 16.8853C14.9105 14.36 18.5 10.6355 18.5 7.22525C18.5508 5.87864 18.0666 4.56666 17.1531 3.57592C16.2397 2.58519 14.9713 1.99624 13.625 1.93775Z" fill="#FF554A"/>
</g>
<defs>
<clipPath id="clip0_20170_37770">
<rect width="18" height="18" fill="white" transform="translate(0.5 0.5)"/>
</clipPath>
</defs>
</svg>
