<svg width="16" height="17" viewBox="0 0 16 17" fill="none" xmlns="http://www.w3.org/2000/svg">
<g clip-path="url(#clip0_20125_166077)">
<path d="M0.884795 8.76696L3.25813 10.5003L2.3568 13.2916C2.21114 13.7246 2.20929 14.193 2.35153 14.627C2.49378 15.0611 2.77249 15.4375 3.14613 15.7003C3.51336 15.9715 3.95839 16.1168 4.4149 16.1145C4.87141 16.1122 5.31496 15.9625 5.67946 15.6876L8.00013 13.9796L10.3215 15.6856C10.688 15.9553 11.1307 16.1017 11.5857 16.1039C12.0408 16.1062 12.4848 15.964 12.854 15.698C13.2232 15.4319 13.4985 15.0557 13.6403 14.6233C13.7822 14.1909 13.7833 13.7247 13.6435 13.2916L12.7421 10.5003L15.1155 8.76696C15.4816 8.4993 15.7537 8.12279 15.893 7.69122C16.0324 7.25965 16.0317 6.79509 15.8912 6.36389C15.7508 5.93269 15.4776 5.55691 15.1108 5.29023C14.744 5.02355 14.3023 4.87961 13.8488 4.87896H10.9335L10.0488 2.12163C9.90968 1.6876 9.63631 1.30897 9.26811 1.04034C8.89991 0.771706 8.45591 0.626953 8.00013 0.626953C7.54435 0.626953 7.10035 0.771706 6.73215 1.04034C6.36395 1.30897 6.09058 1.6876 5.95146 2.12163L5.0668 4.87896H2.15413C1.70062 4.87961 1.25892 5.02355 0.892115 5.29023C0.525307 5.55691 0.252156 5.93269 0.111676 6.36389C-0.0288034 6.79509 -0.0294251 7.25965 0.1099 7.69122C0.249225 8.12279 0.521369 8.4993 0.887462 8.76696H0.884795Z" fill="#FFC14A"/>
</g>
<defs>
<clipPath id="clip0_20125_166077">
<rect width="16" height="16" fill="white" transform="translate(0 0.5)"/>
</clipPath>
</defs>
</svg>
